<svg xmlns="http://www.w3.org/2000/svg" shape-rendering="geometricPrecision" text-rendering="geometricPrecision" image-rendering="optimizeQuality" fill-rule="evenodd" clip-rule="evenodd" viewBox="0 0 441 512.02"><path d="M324.87 279.77c32.01 0 61.01 13.01 82.03 34.02 21.09 21 34.1 50.05 34.1 82.1 0 32.06-13.01 61.11-34.02 82.11l-1.32 1.22c-20.92 20.29-49.41 32.8-80.79 32.8-32.06 0-61.1-13.01-82.1-34.02-21.01-21-34.02-50.05-34.02-82.11s13.01-61.1 34.02-82.1c21-21.01 50.04-34.02 82.1-34.02zM243.11 38.08v54.18c.99 12.93 5.5 23.09 13.42 29.85 8.2 7.01 20.46 10.94 36.69 11.23l37.92-.04-88.03-95.22zm91.21 120.49-41.3-.04c-22.49-.35-40.21-6.4-52.9-17.24-13.23-11.31-20.68-27.35-22.19-47.23l-.11-1.74V25.29H62.87c-10.34 0-19.75 4.23-26.55 11.03-6.8 6.8-11.03 16.21-11.03 26.55v336.49c0 10.3 4.25 19.71 11.06 26.52 6.8 6.8 16.22 11.05 26.52 11.05h119.41c2.54 8.79 5.87 17.25 9.92 25.29H62.87c-17.28 0-33.02-7.08-44.41-18.46C7.08 432.37 0 416.64 0 399.36V62.87c0-17.26 7.08-32.98 18.45-44.36C29.89 7.08 45.61 0 62.87 0h173.88c4.11 0 7.76 1.96 10.07 5l109.39 118.34c2.24 2.43 3.34 5.49 3.34 8.55l.03 119.72c-8.18-1.97-16.62-3.25-25.26-3.79v-89.25zm-229.76 54.49c-6.98 0-12.64-5.66-12.64-12.64 0-6.99 5.66-12.65 12.64-12.65h150.49c6.98 0 12.65 5.66 12.65 12.65 0 6.98-5.67 12.64-12.65 12.64H104.56zm0 72.3c-6.98 0-12.64-5.66-12.64-12.65 0-6.98 5.66-12.64 12.64-12.64h142.52c3.71 0 7.05 1.6 9.37 4.15a149.03 149.03 0 0 0-30.54 21.14H104.56zm0 72.3c-6.98 0-12.64-5.66-12.64-12.65 0-6.98 5.66-12.64 12.64-12.64h86.2c-3.82 8.05-6.95 16.51-9.29 25.29h-76.91zm255.53-21.34c-1.53-1.05-3.28-1.53-5.05-1.17-1.76.35-3.28 1.28-4.33 2.8l-6 8.47c-4.05-1.81-9.22-3-13.6-3.64l-1.89-11.04c-.36-1.87-1.3-3.27-2.7-4.35-1.53-1.04-3.17-1.4-5.04-1.04l-13.86 2.46c-1.76.35-3.18 1.18-4.35 2.7-1.04 1.52-1.52 3.18-1.17 5.05l1.77 10.1c-4.27 1.79-8.5 4.37-12.09 7.28l-9.41-6.47c-1.52-1.05-3.15-1.52-4.92-1.17-1.77.36-3.29 1.3-4.33 2.82l-7.99 11.39c-1.07 1.52-1.53 3.28-1.17 5.04.34 1.88 1.27 3.29 2.82 4.34l8.44 5.99c-1.78 4.02-3 9.26-3.63 13.61l-11.03 1.89c-1.89.36-3.29 1.29-4.36 2.7-1.06 1.53-1.4 3.16-1.06 5.04l2.47 13.85c.35 1.77 1.18 3.17 2.7 4.35 1.53 1.06 3.18 1.53 5.06 1.18l10.09-1.77c1.86 4.42 4.4 8.4 7.28 12.22l-6.47 9.26c-1.05 1.53-1.52 3.18-1.16 4.93.35 1.76 1.3 3.29 2.82 4.33l11.49 8.11c1.53 1.06 3.3 1.41 5.04 1.06 1.77-.35 3.3-1.17 4.48-2.69l5.97-8.58c4.12 1.82 9.17 2.97 13.63 3.65l1.88 11.03c.34 1.89 1.28 3.29 2.69 4.35 1.54 1.05 3.18 1.4 5.06 1.05l13.84-2.47c1.77-.35 3.17-1.17 4.35-2.69 1.05-1.53 1.51-3.17 1.16-5.04l-1.75-10.1c4.47-1.88 8.35-4.41 12.2-7.29l9.29 6.46c1.53 1.05 3.16 1.52 5.04 1.16 1.88-.33 3.29-1.27 4.33-2.81l8.11-11.51c1.05-1.52 1.42-3.29 1.05-5.03-.34-1.76-1.16-3.29-2.68-4.48l-8.58-5.86c1.78-4.02 3-9.25 3.63-13.6l11.04-1.89c1.88-.36 3.28-1.3 4.36-2.7 1.05-1.52 1.4-3.17 1.05-5.04l-2.47-13.86c-.35-1.77-1.17-3.17-2.69-4.34-1.53-1.07-3.19-1.54-5.06-1.18l-10.1 1.77c-1.94-4.4-4.27-8.35-7.28-12.09l6.47-9.4c1.05-1.53 1.52-3.17 1.16-4.93-.35-1.76-1.3-3.29-2.82-4.35l-11.38-7.97-.35.11zm-35.2 29.98c16.34 0 29.6 13.25 29.6 29.6 0 16.34-13.26 29.59-29.6 29.59-16.34 0-29.6-13.25-29.6-29.59 0-16.35 13.26-29.6 29.6-29.6z"/></svg>