<svg xmlns="http://www.w3.org/2000/svg" shape-rendering="geometricPrecision" text-rendering="geometricPrecision" image-rendering="optimizeQuality" fill-rule="evenodd" clip-rule="evenodd" viewBox="0 0 466 512.14"><path d="M232.2 0c86.89 55.08 165.39 81.13 232.75 74.98 11.77 237.97-76.11 378.5-231.86 437.16C82.7 457.24-6.26 322.75.34 71.36 79.42 75.5 157.01 58.41 232.2 0zm-.22 195c13.4-13.97 22.78-26.05 43.43-28.42 38.76-4.46 74.39 35.22 54.82 74.29-5.57 11.13-16.91 24.35-29.45 37.34-13.77 14.25-29.01 28.22-39.69 38.81l-29.11 28.88-24.04-23.17c-28.94-27.87-76.12-62.94-77.67-106.4-1.1-30.44 22.92-49.94 50.55-49.58 24.7.32 35.08 12.61 51.16 28.25zm.37-155.36c72.06 45.67 141.22 71.35 197.09 66.24 9.76 197.35-67.19 317.97-196.33 366.61C108.37 426.97 30.53 311.37 36 102.89c72.38 3.79 138.71-18.47 196.35-63.25z"/></svg>