<?xml version="1.0" encoding="UTF-8" standalone="no"?>
<svg
   xmlns:dc="http://purl.org/dc/elements/1.1/"
   xmlns:cc="http://creativecommons.org/ns#"
   xmlns:rdf="http://www.w3.org/1999/02/22-rdf-syntax-ns#"
   xmlns:svg="http://www.w3.org/2000/svg"
   xmlns="http://www.w3.org/2000/svg"
   viewBox="0 0 758.76941 514.00012"
   height="514.00012"
   width="758.76941"
   xml:space="preserve"
   version="1.1"
   id="svg4149"><metadata
     id="metadata4155"><rdf:RDF><cc:Work
         rdf:about=""><dc:format>image/svg+xml</dc:format><dc:type
           rdf:resource="http://purl.org/dc/dcmitype/StillImage" /><dc:title></dc:title></cc:Work></rdf:RDF></metadata><defs
     id="defs4153" /><g
     transform="matrix(1.25,0,0,-1.25,0,514.00013)"
     id="g4157"><g
       id="g4159"><path
         id="path4161"
         style="fill:#000000;fill-opacity:1;fill-rule:nonzero;stroke:none"
         d="m 558.793,411.2 0,-0.012 c -1.496,-0.027 -2.891,-0.722 -3.832,-1.89 -0.082,-0.098 -0.156,-0.207 -0.227,-0.317 -5.429,-6.746 -16.074,-20.078 -16.648,-20.793 l -7.656,6.153 -21.594,-26.903 0.055,-0.046 c -0.028,-0.028 -0.063,-0.055 -0.09,-0.09 -7.942,-9.91 -8.453,-23.848 -1.27,-34.317 -3.433,-4.597 -5.066,-6.808 -10.613,-14.172 -8.496,-11.281 -17.578,-23.191 -21.531,-28.117 -6.012,-8.117 -15.512,-12.906 -25.61,-12.926 -3.636,0 -7.117,0.649 -10.382,1.77 -6.555,3.195 -11.903,8.578 -15.016,15.363 -0.875,1.723 -2.527,5.199 -3.949,8.184 l -0.192,0.422 8.782,23.343 26.246,0 0,23.336 -99.235,0 c -2.679,0 -5.054,-1.824 -5.668,-4.453 -0.765,-3.121 1.172,-6.297 4.309,-7.027 l 49.402,-11.856 -8.777,-23.343 -208.531,0 9.375,30.246 c 3.039,9.781 12.074,16.433 22.312,16.433 l 38.387,0 0,23.348 -38.387,0 c -20.461,0 -38.558,-13.316 -44.609,-32.875 L 139.922,231.173 C 85.527,242.196 30.906,213.384 9.25,162.259 -15.859,102.892 11.906,34.407 71.254,9.282 c 59.367,-25.16 127.851,2.594 152.984,61.957 25.125,59.379 -2.636,127.863 -62.011,152.988 l 9.3,29.961 137.981,-153.058 c 4.445,-4.91 10.715,-7.738 17.347,-7.738 l 49.047,0 c 0.895,-4.344 2.036,-8.625 3.383,-12.817 20.008,-61.289 85.871,-94.793 147.168,-74.769 61.281,19.968 94.766,85.824 74.781,147.117 -19.968,61.293 -85.836,94.785 -147.117,74.808 l -16.82,37.629 c 2.762,-1.051 5.609,-1.773 8.668,-1.965 1.265,-0.101 2.535,-0.171 3.812,-0.171 9.164,0.007 17.817,2.699 25.118,7.402 3.394,2.008 6.793,4.82 10.113,8.742 3.906,4.617 14,17.961 23.562,30.656 5.25,6.973 6.59,8.789 10.032,13.387 12.101,-5.93 26.703,-2.691 35.144,7.813 0.465,0.578 0.895,1.171 1.305,1.781 l 20.297,25.281 -7.418,5.957 c 0.492,0.613 11.918,14.902 16.949,21.176 l -0.008,0.008 0.008,0.019 c 1.758,2.18 1.402,5.363 -0.777,7.125 -0.93,0.75 -2.098,1.141 -3.297,1.113 -1.493,-0.035 -2.891,-0.73 -3.828,-1.898 -0.082,-0.102 -0.161,-0.199 -0.231,-0.309 -5.457,-6.781 -16.246,-20.296 -16.719,-20.89 l -14.039,11.269 c 0.594,0.743 11.867,14.821 16.879,21.067 l -0.012,0.015 0.02,0.012 c 1.754,2.18 1.402,5.375 -0.785,7.129 -0.934,0.746 -2.102,1.148 -3.297,1.121 z m -379.246,-131.027 207.004,0 -60.844,-162.168 -146.16,162.168 z m 310.816,-70 c 40.239,-0.039 77.391,-26.278 89.442,-66.824 14.683,-49.45 -13.493,-101.457 -62.93,-116.118 -49.445,-14.683 -101.43,13.485 -116.113,62.93 -0.301,1.066 -0.641,2.137 -0.914,3.231 l 64.617,0 c 6.086,-5.797 14.164,-9.036 22.57,-9.055 18.121,0 32.817,14.695 32.817,32.82 -0.016,17.383 -13.61,31.738 -30.965,32.727 l -25.199,56.39 c 6.179,1.825 12.414,3.012 18.589,3.551 2.711,0.227 5.407,0.348 8.086,0.348 z m -373.054,-0.039 c 5.179,-0.024 10.425,-0.5 15.675,-1.43 l -27.367,-88.5 c -1.89,-6.152 1.512,-12.695 7.703,-14.602 6.149,-1.89 12.657,1.543 14.555,7.692 l 27.414,88.508 C 202.273,180.501 223.117,125.188 201.816,78.224 180.543,31.239 125.184,10.403 78.199,31.704 31.234,52.97 10.371,108.321 31.672,155.313 c 15.414,33.985 49.266,55.071 85.637,54.821 z m 325.035,-13.242 24.148,-54.153 c -7.762,-6.226 -12.277,-15.637 -12.277,-25.582 0,-0.148 0.012,-0.285 0.019,-0.422 l -57.339,0 c 0,32.84 17.246,63.274 45.449,80.157 z" /></g></g></svg>